# File created by Blade
# Date/Time:  Fri Jan 16 17:45:28 2015
# Frame Rate: 120.000 fps
#------------------------------------------------------
:FULLY-SPECIFIED
:DEGREES
3611
root -4.948839 35.203141 -9.525720 -0.784146 -3.931448 -6.125066
Spine -6.335497 -5.416802 8.033644
Head 9.996708 5.606118 -6.991439
LeftShoulder -23.172238 13.256056 -14.367127
LeftArm 14.357903 -9.410228 -78.814140
LeftForeArm 4.737976 -0.000000 12.782995
LeftHand 1.719728 -0.000000 -4.852829
LeftHandThumb1 -26.253704 0.000000 33.147579
RightShoulder -14.463431 5.887848 0.762554
RightArm -42.043081 70.113567 28.236143
RightForeArm 56.722741 -0.000000 64.165384
RightHand 12.319410 -0.000000 -30.191295
RightHandThumb1 -24.326973 -0.000000 -32.862282
LeftUpLeg 11.150008 13.158275 6.386104
LeftLeg -9.205119 -0.000000 0.000000
LeftFoot -16.290834 27.807706 -7.730479
LeftToeBase 22.856553 -0.000000 -0.000000
RightUpLeg 7.814557 -5.468045 3.567334
RightLeg -3.960508 -0.000000 0.000000
RightFoot -5.309629 -27.776254 5.124176
RightToeBase 13.667532 -0.000000 -0.000000
3612
root -4.949399 35.203035 -9.528066 -0.799337 -3.869474 -6.119582
Spine -6.312422 -5.422523 8.029786
Head 9.983639 5.578641 -7.019709
LeftShoulder -23.144350 13.241856 -14.393577
LeftArm 14.362276 -9.476481 -78.821070
LeftForeArm 4.857846 0.000000 12.789590
LeftHand 1.796307 0.000000 -4.616104
LeftHandThumb1 -26.253704 0.000000 33.147579
RightShoulder -14.415889 5.929443 0.770842
RightArm -41.666518 69.808912 28.719073
RightForeArm 57.286886 -0.000000 61.907707
RightHand 12.122384 -0.000000 -30.519930
RightHandThumb1 -24.326973 -0.000000 -32.862282
LeftUpLeg 11.133952 13.109735 6.381518
LeftLeg -9.182313 -0.000000 0.000000
LeftFoot -16.305736 27.838752 -7.642875
LeftToeBase 22.996448 -0.000000 -0.000000
RightUpLeg 7.832619 -5.519199 3.560636
RightLeg -3.963227 -0.000000 0.000000
RightFoot -5.327914 -27.765795 5.134461
RightToeBase 13.701116 -0.000000 -0.000000
3613
root -4.951403 35.202626 -9.529820 -0.808977 -3.839458 -6.119754
Spine -6.295707 -5.406117 8.038331
Head 9.973006 5.562355 -7.061318
LeftShoulder -23.148891 13.218133 -14.439899
LeftArm 14.344437 -9.398644 -78.772005
LeftForeArm 4.821283 -0.000000 12.835742
LeftHand 1.821365 0.000000 -4.431945
LeftHandThumb1 -26.253704 0.000000 33.147579
RightShoulder -14.390578 5.986796 0.778456
RightArm -41.449330 69.558385 29.115762
RightForeArm 58.084276 -0.000000 59.942999
RightHand 10.926677 -0.000000 -29.818942
RightHandThumb1 -24.326973 -0.000000 -32.862282
LeftUpLeg 11.133794 13.069250 6.382175
LeftLeg -9.184808 -0.000000 0.000000
LeftFoot -16.292249 27.856161 -7.625607
LeftToeBase 23.002997 -0.000000 -0.000000
RightUpLeg 7.841315 -5.508097 3.566921
RightLeg -3.960970 -0.000000 0.000000
RightFoot -5.336157 -27.800341 5.136773
RightToeBase 13.693772 -0.000000 -0.000000
3614
root -4.953463 35.202183 -9.529937 -0.822001 -3.806711 -6.114191
Spine -6.284370 -5.394488 8.039167
Head 9.975423 5.563923 -7.103147
LeftShoulder -23.156796 13.221844 -14.468307
LeftArm 14.361850 -9.375005 -78.768881
LeftForeArm 4.810964 0.000000 12.823508
LeftHand 1.906004 0.000000 -4.357928
LeftHandThumb1 -26.253704 0.000000 33.147579
RightShoulder -14.382675 5.966551 0.829030
RightArm -41.072168 69.479404 29.627525
RightForeArm 58.957534 -0.000000 57.904622
RightHand 10.610056 -0.000000 -29.123660
RightHandThumb1 -24.326973 -0.000000 -32.862282
LeftUpLeg 11.138901 13.042831 6.381611
LeftLeg -9.185019 -0.000000 0.000000
LeftFoot -16.293600 27.855901 -7.617264
LeftToeBase 23.026521 -0.000000 -0.000000
RightUpLeg 7.857826 -5.498704 3.567815
RightLeg -3.963417 -0.000000 0.000000
RightFoot -5.353430 -27.852256 5.135148
RightToeBase 13.711209 -0.000000 -0.000000
3615
root -4.956281 35.201881 -9.530951 -0.837256 -3.755047 -6.112201
Spine -6.275557 -5.397707 8.044635
Head 9.995454 5.566156 -7.145939
LeftShoulder -23.155791 13.214262 -14.485595
LeftArm 14.369732 -9.394423 -78.785208
LeftForeArm 4.842738 -0.000000 12.803294
LeftHand 1.869204 0.000000 -4.392626
LeftHandThumb1 -26.253704 0.000000 33.147579
RightShoulder -14.375442 5.961337 0.906968
RightArm -40.720762 69.405163 30.099557
RightForeArm 59.268463 0.000000 55.993529
RightHand 10.357931 -0.000000 -29.235050
RightHandThumb1 -24.326973 -0.000000 -32.862282
LeftUpLeg 11.134433 13.013401 6.387557
LeftLeg -9.172436 -0.000000 0.000000
LeftFoot -16.297745 27.862111 -7.570508
LeftToeBase 23.120875 -0.000000 -0.000000
RightUpLeg 7.879622 -5.527103 3.570552
RightLeg -3.973503 -0.000000 0.000000
RightFoot -5.356746 -27.868595 5.143899
RightToeBase 13.719345 -0.000000 -0.000000
3616
root -4.958135 35.201627 -9.531889 -0.845907 -3.717373 -6.105147
Spine -6.272690 -5.390835 8.051369
Head 10.005269 5.580516 -7.197598
LeftShoulder -23.151133 13.212470 -14.504358
LeftArm 14.368649 -9.351321 -78.787215
LeftForeArm 4.807623 -0.000000 12.784299
LeftHand 1.854918 -0.000000 -4.403361
LeftHandThumb1 -26.253704 0.000000 33.147579
RightShoulder -14.383101 5.919737 1.023450
RightArm -40.168155 69.269404 30.775929
RightForeArm 59.408601 -0.000000 54.122641
RightHand 10.783708 0.000000 -29.745747
RightHandThumb1 -24.326973 -0.000000 -32.862282
LeftUpLeg 11.126682 12.978454 6.382769
LeftLeg -9.161267 -0.000000 0.000000
LeftFoot -16.306876 27.858402 -7.574719
LeftToeBase 23.118046 -0.000000 -0.000000
RightUpLeg 7.883490 -5.533269 3.568101
RightLeg -3.960227 -0.000000 0.000000
RightFoot -5.371665 -27.887638 5.141374
RightToeBase 13.685695 -0.000000 -0.000000
3617
root -4.961914 35.201518 -9.532186 -0.862195 -3.667138 -6.101482
Spine -6.263738 -5.394414 8.048998
Head 10.028131 5.598186 -7.227349
LeftShoulder -23.158863 13.210612 -14.507251
LeftArm 14.373778 -9.300369 -78.798783
LeftForeArm 4.797745 0.000000 12.768536
LeftHand 1.790820 -0.000000 -4.411658
LeftHandThumb1 -26.253704 0.000000 33.147579
RightShoulder -14.381068 5.911093 1.126982
RightArm -39.792671 69.161600 31.250128
RightForeArm 59.224803 -0.000000 52.140819
RightHand 10.701857 -0.000000 -31.199689
RightHandThumb1 -24.326973 -0.000000 -32.862282
LeftUpLeg 11.126848 12.951953 6.388751
LeftLeg -9.153008 -0.000000 0.000000
LeftFoot -16.290936 27.837089 -7.557591
LeftToeBase 23.086312 -0.000000 -0.000000
RightUpLeg 7.907226 -5.531583 3.571276
RightLeg -3.969183 -0.000000 0.000000
RightFoot -5.378188 -27.911540 5.232856
RightToeBase 13.568417 -0.000000 -0.000000
3618
root -4.965408 35.201376 -9.532916 -0.875745 -3.618743 -6.096591
Spine -6.256902 -5.410459 8.047226
Head 10.046429 5.624819 -7.249045
LeftShoulder -23.171865 13.207174 -14.527299
LeftArm 14.359326 -9.209023 -78.775478
LeftForeArm 4.694484 0.000000 12.793126
LeftHand 1.814188 -0.000000 -4.356142
LeftHandThumb1 -26.253704 0.000000 33.147579
RightShoulder -14.350586 5.924052 1.211727
RightArm -39.471515 68.979846 31.730636
RightForeArm 58.911452 -0.000000 50.188435
RightHand 11.150029 -0.000000 -31.338370
RightHandThumb1 -24.326973 -0.000000 -32.862282
LeftUpLeg 11.125665 12.911954 6.390302
LeftLeg -9.149174 -0.000000 0.000000
LeftFoot -16.283401 27.833212 -7.554758
LeftToeBase 23.100852 -0.000000 -0.000000
RightUpLeg 7.923038 -5.545727 3.575000
RightLeg -3.967788 -0.000000 0.000000
RightFoot -5.389387 -27.963398 5.148581
RightToeBase 13.701167 -0.000000 -0.000000
3619
root -4.969053 35.201420 -9.533731 -0.888404 -3.570050 -6.089886
Spine -6.254230 -5.425415 8.042155
Head 10.071329 5.637554 -7.267931
LeftShoulder -23.190277 13.203345 -14.536570
LeftArm 14.369335 -9.265778 -78.816924
LeftForeArm 4.777841 -0.000000 12.767159
LeftHand 1.851752 0.000000 -4.427763
LeftHandThumb1 -26.253704 0.000000 33.147579
RightShoulder -14.312147 5.943279 1.281030
RightArm -39.533199 68.904322 31.887358
RightForeArm 57.695772 -0.000000 48.203799
RightHand 10.918409 -0.000000 -30.464138
RightHandThumb1 -24.326973 -0.000000 -32.862282
LeftUpLeg 11.119333 12.898387 6.392619
LeftLeg -9.138583 -0.000000 0.000000
LeftFoot -16.275045 27.802530 -7.545484
LeftToeBase 23.111860 -0.000000 -0.000000
RightUpLeg 7.938131 -5.553283 3.576295
RightLeg -3.967550 -0.000000 0.000000
RightFoot -5.407504 -28.000987 5.164744
RightToeBase 13.690923 -0.000000 -0.000000
